# xmcd
#
# Track frame offsets:
#	150
#	14476
#	31102
#	54295
#	69718
#	88527
#	101234
#	116525
#	131179
#	150157
#	163913
#	190294
#
# Disc length: 2709 seconds
# Revision: 0
# Processed by: cddbd v1.5.2PL0 Copyright (c) Steve Scherf et al.
# Submitted via: dBpowerAMP V12.0
#
DISCID=9b0a930c
DTITLE=Rag Mama Rag - Some Ol' Day
DYEAR=2010
DGENRE=Blues
TTITLE0=Mean Old Lonesome Blues
TTITLE1=Some Ol' Day
TTITLE2=How can a poor man stand
TTITLE3=Old Jim Canans
TTITLE4=Need you by my side
TTITLE5=Georgia Bound
TTITLE6=Someday Baby
TTITLE7=Get on back to you
TTITLE8=Way down behind the sun
TTITLE9=Fracking Man
TTITLE10=Caution to the wind
TTITLE11=Stop Breaking Down
EXTD=
EXTT0=
EXTT1=
EXTT2=
EXTT3=
EXTT4=
EXTT5=
EXTT6=
EXTT7=
EXTT8=
EXTT9=
EXTT10=
EXTT11=
PLAYORDER=
